<?xml version="1.0" encoding="UTF-8" standalone="no"?>
<svg
   xmlns:dc="http://purl.org/dc/elements/1.1/"
   xmlns:cc="http://creativecommons.org/ns#"
   xmlns:rdf="http://www.w3.org/1999/02/22-rdf-syntax-ns#"
   xmlns:svg="http://www.w3.org/2000/svg"
   xmlns="http://www.w3.org/2000/svg"
   xmlns:sodipodi="http://sodipodi.sourceforge.net/DTD/sodipodi-0.dtd"
   xmlns:inkscape="http://www.inkscape.org/namespaces/inkscape"
   version="1.1"
   x="0px"
   y="0px"
   viewBox="0 0 90 90"
   enable-background="new 0 0 100 100"
   xml:space="preserve"
   id="svg2"
   inkscape:version="0.91 r13725"
   sodipodi:docname="comic_logo.svg"
   width="90"
   height="90"><metadata
     id="metadata128"><rdf:RDF><cc:Work
         rdf:about=""><dc:format>image/svg+xml</dc:format><dc:type
           rdf:resource="http://purl.org/dc/dcmitype/StillImage" /><dc:title /></cc:Work></rdf:RDF></metadata><defs
     id="defs126" /><sodipodi:namedview
     pagecolor="#ffffff"
     bordercolor="#666666"
     borderopacity="1"
     objecttolerance="10"
     gridtolerance="10"
     guidetolerance="10"
     inkscape:pageopacity="0"
     inkscape:pageshadow="2"
     inkscape:window-width="1536"
     inkscape:window-height="801"
     id="namedview124"
     showgrid="false"
     inkscape:zoom="1.888"
     inkscape:cx="-108.36864"
     inkscape:cy="62.5"
     inkscape:window-x="-8"
     inkscape:window-y="-8"
     inkscape:window-maximized="1"
     inkscape:current-layer="svg2" /><g
     id="g114"
     transform="translate(-4.5002137,-7.537)"
     style="fill:#ffffff;fill-opacity:1"><path
       d="m 92.068,16.912 c -0.28,-0.284 -0.67,-0.447 -1.068,-0.447 -0.98,0 -1.959,0.044 -2.937,0.107 l 0.033,-2.522 c 0.007,-0.535 -0.2,-1.05 -0.576,-1.431 -0.376,-0.381 -0.889,-0.631 -1.424,-0.631 -0.61,0 -1.221,0.012 -1.83,0.012 0.002,0 0.005,0 0.007,0 L 84.298,9.966 C 84.305,9.432 84.097,8.934 83.721,8.554 83.345,8.174 82.832,7.969 82.298,7.969 65.124,7.969 48.415,23.086 43.508,27.921 31.399,16.725 15.217,9.452 14.507,9.136 13.88,8.857 13.154,8.92 12.583,9.302 12.012,9.683 11.676,10.33 11.694,11.016 l 0.067,2.636 c 0.03,0.013 0.07,0.032 0.101,0.045 C 11.19,13.405 10.765,13.229 10.66,13.185 10.035,12.928 9.322,13.004 8.764,13.39 8.207,13.775 7.883,14.414 7.902,15.091 L 7.984,18.06 C 7.061,17.712 6.529,17.524 6.497,17.513 6.036,17.351 5.512,17.428 5.112,17.72 4.714,18.013 4.485,18.483 4.501,18.977 l 2,61.687 c 0.023,0.71 0.548,1.312 1.248,1.43 16.448,2.798 36.087,15.088 36.285,15.213 0.241,0.15 0.518,0.23 0.8,0.23 0.179,0 0.355,-0.031 0.522,-0.094 17.855,-6.632 44.738,-13.378 45.008,-13.445 0.659,-0.164 1.126,-0.753 1.137,-1.432 l 1,-64.578 c 0.005,-0.4 -0.152,-0.791 -0.433,-1.076 z M 7.571,21.111 c 5.863,2.241 22.558,9.063 34.513,18.282 0.149,0.114 0.32,0.188 0.499,0.237 -0.645,0.201 -1.108,0.848 -1.082,1.55 l 1.931,52.252 C 43.278,93.341 43.121,93.248 42.953,93.151 L 40,40 C 35.433,34.52 11.687,24.038 7.608,22.264 L 7.571,21.111 Z m 37.662,39.764 4.725,3.365 -4.503,2.667 -0.222,-6.032 z m 0.27,7.323 4.627,1.319 -4.407,4.656 -0.22,-5.975 z m 0.946,25.653 -0.712,-19.314 6.247,-0.247 -3.102,6.051 6.457,-2.252 -1.134,6.469 5.666,-4.016 0.936,6.258 4.317,-5.391 2.924,5.434 2.543,-6.238 4.625,4.078 0.522,-6.473 5.871,2.32 -1.549,-6.072 6.543,0.336 -3.463,-5.084 5.581,-1.424 -0.203,13.086 C 83.412,82.677 62.226,88.196 46.449,93.851 Z M 65.67,75.34 c 0,-1.381 1.468,-2.5 3.281,-2.5 1.813,0 3.281,1.119 3.281,2.5 0,1.381 -1.468,2.5 -3.281,2.5 -1.813,0 -3.281,-1.119 -3.281,-2.5 z m 18.993,-10.901 4.155,-2.459 -0.083,5.358 -4.072,-2.899 z m -0.174,-5.277 4.445,-4.695 -0.092,5.938 -4.353,-1.243 z m 4.45,-5.02 -6.301,0.249 3.101,-6.049 -6.456,2.251 1.134,-6.469 -2.727,1.933 -4.364,26.783 c -2.188,-2 -7.656,0 -7.656,0 L 60.131,44.638 59.408,44 58.884,50.472 53.561,48.368 c 0.366,-0.178 0.699,-0.335 0.966,-0.454 0.742,-0.329 1.51,-0.669 -0.32,-12.27 -0.048,-0.307 -0.236,-0.574 -0.509,-0.723 -0.274,-0.148 -0.601,-0.163 -0.884,-0.036 -0.149,0.066 -3.694,1.642 -6.42,3.253 -0.329,0.195 -0.519,0.56 -0.488,0.941 l 0.902,11.2 c 0.027,0.336 0.221,0.635 0.517,0.797 0.149,0.082 0.314,0.123 0.48,0.123 0.162,0 0.323,-0.039 0.47,-0.117 0.036,-0.019 2.817,-1.497 4.851,-2.502 l 1.436,5.644 -6.54,-0.336 3.461,5.084 -6.261,1.598 -0.723,-19.595 c -0.025,-0.666 -0.482,-1.186 -1.09,-1.352 0.202,-0.055 0.395,-0.136 0.558,-0.272 0.228,-0.192 22.817,-19.031 45.51,-19.859 l -0.538,34.65 z M 48.68,48.608 47.95,39.549 c 1.566,-0.888 3.339,-1.751 4.481,-2.287 0.559,3.771 1.002,7.788 0.899,8.999 -1.272,0.593 -3.309,1.645 -4.65,2.347 z m 8.585,-21.831 c -0.681,0.382 -1.339,0.765 -1.984,1.145 C 62.829,22.626 73.42,16.769 84.07,16.089 l -0.012,0.901 c -10.26,1.498 -19.955,5.942 -26.793,9.787 z M 80.274,12 C 71.535,14 63.178,17.725 56.487,22.001 63.033,17.272 71.634,12.357 80.273,11.687 L 80.269,12 c 0.002,0 0.003,0 0.005,0 z m 2.011,0.229 c -0.031,0.003 -0.063,0.008 -0.095,0.012 0.032,-0.004 0.064,-0.009 0.095,-0.012 z M 43.517,32.116 c -0.176,0.159 -0.342,0.309 -0.495,0.449 0.152,-0.14 0.319,-0.291 0.495,-0.449 z m 12.696,-9.69 c -0.329,0.212 -0.656,0.424 -0.978,0.636 0.322,-0.212 0.649,-0.424 0.978,-0.636 z m -1.473,0.968 c -0.244,0.164 -0.488,0.328 -0.728,0.492 0.24,-0.164 0.484,-0.328 0.728,-0.492 z m -1.24,0.845 c -0.225,0.156 -0.449,0.312 -0.668,0.466 0.22,-0.154 0.442,-0.31 0.668,-0.466 z m -1.168,0.821 c -0.216,0.155 -0.43,0.309 -0.641,0.462 0.211,-0.153 0.425,-0.307 0.641,-0.462 z m -1.107,0.802 c -0.218,0.16 -0.432,0.319 -0.644,0.478 0.212,-0.159 0.426,-0.318 0.644,-0.478 z m -1.056,0.785 c -0.231,0.174 -0.455,0.346 -0.678,0.517 0.223,-0.172 0.447,-0.343 0.678,-0.517 z m -1.004,0.767 c -0.654,0.505 -1.271,0.995 -1.851,1.464 0.58,-0.469 1.197,-0.959 1.851,-1.464 z m -2.111,1.677 c -0.199,0.162 -0.396,0.324 -0.585,0.48 0.189,-0.156 0.385,-0.317 0.585,-0.48 z m -0.868,0.717 c -0.171,0.143 -0.34,0.284 -0.502,0.421 0.162,-0.138 0.33,-0.279 0.502,-0.421 z m -0.777,0.653 c -0.155,0.132 -0.307,0.262 -0.454,0.389 0.148,-0.127 0.298,-0.256 0.454,-0.389 z m -0.7,0.601 c -0.148,0.129 -0.291,0.254 -0.43,0.376 0.139,-0.122 0.281,-0.246 0.43,-0.376 z m -0.627,0.55 c -0.149,0.132 -0.29,0.258 -0.427,0.38 0.137,-0.122 0.277,-0.247 0.427,-0.38 z M 39.49,29.702 C 31.01,23.179 21.516,18.214 15.81,15.499 l -0.034,-1.313 c 4.936,2.474 15.255,8.085 23.714,15.516 z M 14.709,14.981 c -0.106,-0.05 -0.211,-0.098 -0.314,-0.146 0.104,0.049 0.207,0.097 0.314,0.146 z M 13.57,14.458 c -0.043,-0.02 -0.092,-0.042 -0.135,-0.062 0.044,0.019 0.091,0.042 0.135,0.062 z m -0.945,-0.426 c -0.077,-0.034 -0.151,-0.067 -0.224,-0.099 0.074,0.032 0.145,0.064 0.224,0.099 z m -0.637,4.109 c 4.084,1.871 11.978,5.74 19.784,10.961 -7.455,-4.205 -14.887,-7.476 -19.743,-9.454 l -0.041,-1.507 z"
       id="path116"
       inkscape:connector-curvature="0"
       style="fill:#ffffff;fill-opacity:1" /><path
       d="m 59,33 7,39 c 0,0 2.223,-0.889 4.296,-0.889 1.037,0 2.037,0.222 2.704,0.889 l 7,-47 c 0,0 -18,3 -21,8 z m 16.203,-2.945 -5.521,37.073 c -0.163,0.009 -0.325,0.021 -0.486,0.035 l -5.9,-32.878 c 1.983,-1.331 6.659,-2.978 11.907,-4.23 z"
       id="path118"
       inkscape:connector-curvature="0"
       style="fill:#ffffff;fill-opacity:1" /></g></svg>